<?xml version="1.0" encoding="utf-8"?>
<!-- Generator: Adobe Illustrator 22.1.0, SVG Export Plug-In . SVG Version: 6.00 Build 0)  -->
<svg version="1.1" id="Layer_1" xmlns="http://www.w3.org/2000/svg" xmlns:xlink="http://www.w3.org/1999/xlink" x="0px" y="0px"
	 viewBox="0 0 170.1 170.1" style="enable-background:new 0 0 170.1 170.1;" xml:space="preserve">
<style type="text/css">
	.st0{fill:#333333;}
	.st1{fill:#FFFFFF;}
</style>
<g>
	<g>
		<path class="st0" d="M85,0C38.1,0,0,38.1,0,85c0,47,38.1,85,85.1,85s85.1-38.1,85.1-85C170.1,38.1,132,0,85,0z"/>
	</g>
</g>
<path class="st1" d="M61.2,111.5c-1.3,0-2.6-0.5-3.7-1.4L29.2,85L59,58.6c2.3-2,5.8-1.8,7.9,0.5c2,2.3,1.8,5.8-0.5,7.9L46,85
	l18.8,16.7c2.3,2,2.5,5.6,0.5,7.9C64.2,110.9,62.7,111.5,61.2,111.5z M111.1,111.5L140.8,85L112.6,60c-2.3-2-5.8-1.8-7.9,0.5
	c-2,2.3-1.8,5.8,0.5,7.9L124.1,85l-20.4,18.1c-2.3,2-2.5,5.6-0.5,7.9c1.1,1.2,2.6,1.9,4.2,1.9C108.7,112.9,110,112.5,111.1,111.5z
	 M85,119.4l11.2-66.9c0.5-3-1.5-5.9-4.6-6.4c-3.1-0.5-5.9,1.5-6.4,4.6L74,117.6c-0.5,3,1.5,5.9,4.6,6.4c0.3,0.1,0.6,0.1,0.9,0.1
	C82.1,124.1,84.5,122.1,85,119.4z"/>
</svg>
