<?xml version="1.0" encoding="utf-8"?>
<!-- Generator: Adobe Illustrator 22.1.0, SVG Export Plug-In . SVG Version: 6.00 Build 0)  -->
<svg version="1.1" id="Layer_x5F_1" xmlns="http://www.w3.org/2000/svg" xmlns:xlink="http://www.w3.org/1999/xlink" x="0px"
	 y="0px" viewBox="0 0 170.1 170.1" style="enable-background:new 0 0 170.1 170.1;" xml:space="preserve">
<style type="text/css">
	.st0{fill:#333333;}
</style>
<path class="st0" d="M170.1,82.4c0-22.8-9.3-43.4-24.3-58.3C130.7,9.2,110,0,87.1,0C64.2,0,43.4,9.2,28.4,24.1
	C13.3,39.1,4,59.7,4,82.4c0,7.6,1.1,15,3,22.1c2,7,4.8,13.6,8.5,19.7L1.1,166.7L0,170.1l3.4-1.1l44.2-14.1
	c5.9,3.2,12.1,5.6,18.7,7.3c6.6,1.7,13.6,2.6,20.7,2.6c22.9,0,43.7-9.2,58.7-24.1C160.8,125.8,170.1,105.2,170.1,82.4L170.1,82.4z
	 M47.8,41.4 M67.7,73.8 M66.9,76.3c0.8,1.4,2.8,4.7,5.9,8.4c1.9,2.3,4.1,4.8,6.6,7c7.1,6.3,13.3,9,16.5,10.3
	c0.6,0.3,1.1,0.5,1.7,0.8c0.8,0.4,1.4,0.6,1.8,0.5c0.3,0,0.6-0.3,1-0.7v0c0.9-1,2.9-3.3,4.6-5.4c1.1-1.3,2-2.6,2.6-3.4l0,0
	c1.1-1.7,2.3-2.4,3.7-2.5c1.2-0.1,2.3,0.2,3.6,0.7c0.9,0.3,3.2,1.4,5.8,2.6c4,1.9,8.8,4.2,10.1,4.9l0,0c0.4,0.2,0.7,0.3,1.1,0.5
	c2,0.9,3.3,1.6,4.1,2.8l0,0c0.5,0.8,0.8,3,0.4,5.8c-0.2,1.9-0.7,4.2-1.6,6.7c-1,2.8-3.6,5.4-6.6,7.5c-3.6,2.5-7.9,4.3-10.5,4.5
	c-0.6,0.1-1.1,0.2-1.7,0.3c-3.2,0.8-6.8,1.7-26.8-6.1c-22-8.6-36.5-29.8-39.7-34.4c-0.3-0.4-0.4-0.7-0.5-0.7l0,0l0,0l0,0
	c-1.3-1.7-9.8-12.9-9.8-24.7c0-11.3,5.6-17.2,8.2-19.8c0.1-0.1,0.2-0.3,0.4-0.4c1.1-1.2,2.3-2,3.4-2.5c1.5-0.7,3-0.9,4.1-0.9
	c0.8,0,1.7,0.1,2.5,0.1c0.7,0,1.3,0.1,1.9,0.1c0.2,0,0.3,0,0.4,0c1.9-0.1,4.3-0.3,6.4,4.9c0.2,0.6,1.4,3.4,2.7,6.4
	c1.9,4.7,4,9.8,4.4,10.5l0,0c0.4,0.7,0.7,1.5,0.8,2.5c0.1,1,0,2-0.6,3.1l0,0c-0.1,0.2-0.2,0.5-0.3,0.7c-0.6,1.3-1.1,2.2-2.2,3.5l0,0
	c-0.5,0.5-0.8,1-1.2,1.4c-0.8,1-1.6,2-2.4,2.7l0,0C67,74.5,66.3,75.2,66.9,76.3L66.9,76.3z"/>
</svg>
